PathFileType	3	(X/Y/Z)	results
DataRate	CameraRate	NumFrames	NumMarkers	Units	OrigDataRate	OrigDataStartFrame	OrigNumFrames
30.0	30.0	4	85	mm	30.0	152	243
Frame#	Time	head			nose			neck			shoulder_r			elbow_r			wrist_r			shoulder_l			elbow_l			wrist_l			hip_r			knee_r			ankle_r			hip_l			knee_l			ankle_l			heel_r			heel_l			mtoe_r			ltoe_r			mtoe_l			ltoe_l			asis_l			asis_r			psi_r			psi_l			mhnd_r			lhnd_r			mhnd_l			lhnd_l			l_lat_knee			r_med_wrist			l_lat_ankle			r_med_ankle			r_lat_knee			xiphoid			l_med_ankle			r_med_knee			l_med_elbow			navel			r_lat_elbow			r_lat_wrist			l_med_wrist			l_lat_elbow			l_med_knee			r_med_elbow			r_lat_ankle			l_lat_wrist			chin			T10			r_eye			l_eye			l_ear			r_ear			spinal_cord_8			spinal_cord_12			spinal_cord_27			spinal_cord_33			up_arm_r_0			up_arm_r_5			up_arm_l_0			up_arm_l_5			front_torso_11			front_torso_7			front_torso_4			front_torso_1			front_torso_10			thigh_r_2			thigh_r_3			thigh_l_1			thigh_l_5			shank_l_0			shank_l_4			shank_r_1			shank_r_2			foot_r_1			foot_r_3			foot_r_5			foot_r_6			foot_r_7			foot_l_1			foot_l_7			foot_l_0			foot_l_4			foot_l_5			foot_l_6			
		X1	Y1	Z1	X2	Y2	Z2	X3	Y3	Z3	X4	Y4	Z4	X5	Y5	Z5	X6	Y6	Z6	X7	Y7	Z7	X8	Y8	Z8	X9	Y9	Z9	X10	Y10	Z10	X11	Y11	Z11	X12	Y12	Z12	X13	Y13	Z13	X14	Y14	Z14	X15	Y15	Z15	X16	Y16	Z16	X17	Y17	Z17	X18	Y18	Z18	X19	Y19	Z19	X20	Y20	Z20	X21	Y21	Z21	X22	Y22	Z22	X23	Y23	Z23	X24	Y24	Z24	X25	Y25	Z25	X26	Y26	Z26	X27	Y27	Z27	X28	Y28	Z28	X29	Y29	Z29	X30	Y30	Z30	X31	Y31	Z31	X32	Y32	Z32	X33	Y33	Z33	X34	Y34	Z34	X35	Y35	Z35	X36	Y36	Z36	X37	Y37	Z37	X38	Y38	Z38	X39	Y39	Z39	X40	Y40	Z40	X41	Y41	Z41	X42	Y42	Z42	X43	Y43	Z43	X44	Y44	Z44	X45	Y45	Z45	X46	Y46	Z46	X47	Y47	Z47	X48	Y48	Z48	X49	Y49	Z49	X50	Y50	Z50	X51	Y51	Z51	X52	Y52	Z52	X53	Y53	Z53	X54	Y54	Z54	X55	Y55	Z55	X56	Y56	Z56	X57	Y57	Z57	X58	Y58	Z58	X59	Y59	Z59	X60	Y60	Z60	X61	Y61	Z61	X62	Y62	Z62	X63	Y63	Z63	X64	Y64	Z64	X65	Y65	Z65	X66	Y66	Z66	X67	Y67	Z67	X68	Y68	Z68	X69	Y69	Z69	X70	Y70	Z70	X71	Y71	Z71	X72	Y72	Z72	X73	Y73	Z73	X74	Y74	Z74	X75	Y75	Z75	X76	Y76	Z76	X77	Y77	Z77	X78	Y78	Z78	X79	Y79	Z79	X80	Y80	Z80	X81	Y81	Z81	X82	Y82	Z82	X83	Y83	Z83	X84	Y84	Z84	X85	Y85	Z85	
152	5.066666666666666	267.38375667942626	1635.7855450808834	-312.97317908248317	237.83759760727102	1469.3088053382953	-441.8394010849431	243.53308212838655	1320.0313462146078	-274.92112855914553	395.58847436022234	1319.5250162292923	-294.0759705609113	537.3521979900142	1157.5946475791368	-444.6041562806051	380.00899772005914	1244.8781443094233	-581.4162621887567	85.26219010245845	1267.9627853055874	-288.95081268183503	-33.96216938756722	1147.732398892987	-497.38759673193846	157.96239635693289	1235.320053756602	-610.6648033213095	364.0897678361689	828.5776192488132	-126.54083413355666	401.5535243715671	474.3140242698073	-279.9337865889639	482.22733913166974	102.163063474908	-186.91235922406986	158.3957333667399	817.2262364324815	-115.62779181478068	92.17687228133558	470.44467818493763	-285.83419127085415	63.71868077394197	104.6198493186759	-168.68510950948183	487.87068296243564	45.712331618512486	-163.49053736130793	56.15835065466185	42.765626763167376	-133.80639798723428	494.57293502963233	38.405337070460945	-389.6543670504285	558.5488214246278	36.75118455796282	-326.8285284257628	60.96703836228176	44.73758493973009	-362.84878699136556	-17.447681731021458	27.16563815816975	-304.8620082953228	106.96294607299333	849.8412233755586	-184.6918785214527	408.44171993468433	865.4812639665527	-196.04740033982463	308.2701958281427	949.6907693261493	-76.22549796016962	205.58585588304524	940.6360063230228	-75.91036658851888	340.37478467224315	1249.430178957947	-642.9800170377081	319.78280644333773	1293.6187002979807	-620.7902160212928	206.3188679553724	1245.9101925951873	-668.6658155079858	232.1000476825827	1277.2818415061256	-633.9253817140686	44.331120218149586	476.0225272767203	-280.44052222279964	396.6879854356845	1227.9047624245443	-596.9873757607268	11.934922345824495	98.09413019938378	-152.67474252772803	452.04637501382075	82.16364981202834	-200.5095930735869	444.3158793495992	471.95591815696895	-281.81819492003734	255.3771466008604	1132.7100430828668	-323.3995724366182	89.87385663118874	86.22371332405294	-182.4531248180628	360.7057706801471	466.80176253182486	-280.13256543229136	-23.55885457458619	1119.7197249129651	-475.6934659238351	261.9475030335326	917.680518945462	-282.0334588710584	555.702017944667	1192.265389316137	-453.187661634936	369.90044773328947	1252.8748711919682	-552.826687221506	135.23473412434262	1227.417990053815	-633.7046729586086	-46.998411575340846	1186.4635149066783	-497.82518883584856	137.38446994534618	474.25235654866066	-302.01034407855946	514.4234658743119	1132.9789417624231	-429.1605064549662	532.5773674904128	94.94578836789125	-181.91420314321942	160.28040911949287	1247.4297902906687	-581.0641217792329	239.06490115215388	1392.6353762419963	-426.8158041237625	247.8061207893063	1193.0399690170937	-137.67131807348153	271.4199679474602	1499.9379935550382	-445.5873089721241	203.52711721817818	1501.2700470452103	-433.2767222542732	169.87100424010836	1491.3895966699263	-324.1607841832701	338.6187424830238	1484.8310070578893	-352.3352799644463	239.21839424976076	1389.452391063267	-242.8474872052364	241.27064057374903	1289.4260715490443	-163.26014936038916	267.0071964251718	1043.460695452541	-114.1207528903094	248.55437191310193	1180.4524123390736	-147.778023806941	445.5712015990725	1257.262442827318	-406.35270781835925	508.629649194835	1221.2059969663874	-355.4220117130215	45.564160684195514	1268.6411384566031	-336.41335992835263	-4.158516543119023	1145.2322947408907	-416.57649821763977	309.5897444220472	956.8857129134985	-249.74388274144988	261.1265102071895	1041.1903295940347	-330.7706761101016	186.54495983262998	1171.691199118856	-342.2108680210972	186.00636075605297	982.4175771132881	-265.4935729127086	335.42895555646516	1216.533463527518	-356.525708468585	366.7936847999998	635.029654830171	-208.45592081649406	464.6468540803652	612.9349010889904	-223.44432550574152	158.5320435771287	564.7765450779078	-237.03920499063491	42.57838600828548	745.7125327382752	-169.5198437643266	3.2248988486913572	198.64722821401975	-195.92583293462522	127.41091989572811	321.7481574437799	-252.21833336982058	493.16781439089436	328.7333078832738	-233.69470782093066	405.07824386910795	269.6358260878988	-239.7396170296469	517.4996995176991	32.13144339449355	-370.5733019595261	540.9761566695134	34.979691629316804	-352.78925177263375	478.49594409500276	48.36868202254689	-307.2356728976126	514.6541434634636	56.74115125955551	-292.3252739768095	545.9292575549617	44.59739701042395	-279.00373127659816	12.34376080447977	29.562910582171586	-335.81738263671383	-4.972361355090701	58.11535886748854	-228.686558361427	-2.5095110198837327	28.791991425702584	-327.5251747141632	30.606632973959435	30.471475587963837	-345.3512887086251	24.29311053084602	45.44124469846279	-285.91643221461607	55.32492227539203	58.586409274155706	-256.36058836724527	
153	5.1	263.78727880363823	1613.0328461388174	-324.12776360858834	234.46109080165198	1446.0701107038644	-452.41417457162055	242.27847964275367	1298.7412621782432	-283.16557840715484	387.5033143435839	1292.2637801842584	-308.40385619829215	537.8444037151303	1133.87596496158	-454.3078971299446	374.4058536135647	1219.2770613936368	-585.0264377604955	82.65737594716595	1249.1777376767348	-298.52045274482026	-38.02027894519181	1126.1042786550554	-504.4464441883473	157.20637208345568	1214.5511465264694	-611.2269107788666	364.39220782423797	813.722997354078	-114.93747941603917	400.3926216914613	471.1850106649284	-294.3903909933716	480.65444963370277	102.36127016853625	-188.6327653622318	158.66927737370824	801.9853682088763	-105.02344140415025	87.98473426498651	467.6308524365683	-299.4970351898122	63.52623553132854	105.44951489624505	-170.70246226986345	486.3100884453821	46.11337167725216	-163.8769856599429	56.354514474623606	43.87944941783013	-134.48472161824637	494.1944097872887	38.283220625035156	-389.9851819360267	557.800740286723	36.116276474450885	-326.8007271002249	62.7439678647703	45.153760308390396	-363.49340938875156	-15.929553193039375	27.137689730384288	-305.995527429121	107.63348505123993	830.9843321082401	-175.96937186889824	409.1231258678819	847.41638050591	-185.8179301549073	307.6863447188094	936.8779914241059	-70.9699309270085	205.04103350733428	927.385803939111	-70.98311552594063	332.78601813534	1223.7068244901088	-645.2747096704636	311.905766193932	1267.125983776724	-621.8688569738989	207.4471721167434	1225.3410003818458	-667.5656884239753	231.88672248361559	1256.8565006135577	-631.9956315401648	40.54162054110896	474.28468505386087	-292.7787666812487	390.9701848233097	1202.889727725679	-601.3304902790562	11.812786925979008	98.86865587065613	-154.4887018891512	451.00625036414067	81.776756744666	-202.52571312270226	443.13441167732213	469.07468071293624	-295.88920944315925	254.15837036251503	1109.813886556989	-324.9390978702675	89.88673511790597	86.9118931181283	-183.87629730568474	359.53675336094466	463.8241609231131	-293.90918301640585	-27.638854450377252	1098.4019344330345	-482.3471155969349	261.245501921855	896.4187479264681	-275.9053486657525	554.9810473619533	1169.1096838564708	-463.10410577272853	365.0132220001334	1226.6749307769512	-556.0342970937754	135.30984994721655	1206.5263891011448	-635.0170436248018	-50.89272948878891	1164.879507597148	-505.4544533076828	133.6724168196365	472.58010298100015	-314.01707638875433	515.6331166561704	1108.606566722995	-438.8715021793783	530.8822881379176	95.64209887260105	-181.98348298023487	158.46289287841606	1226.6888995751935	-581.5736587435948	237.66766445493897	1369.428016568196	-437.52334649075766	247.40973803006602	1176.7707281239657	-141.46364394560032	267.29156892125644	1477.396551667925	-456.9730543656598	199.7197047036553	1477.3017014669736	-442.9445739923466	169.05468508308405	1466.6405960674313	-333.0234996487256	337.13379425872023	1463.6275070085528	-365.4727034196962	238.0196673027213	1369.2646832165233	-253.58642913645102	240.60812067846038	1272.1663368652928	-170.46704691579356	266.94449202145455	1028.1593590797504	-112.64830283326445	248.1268239295291	1163.829008624357	-151.11505046774022	441.67577121119723	1230.430700474261	-418.9614519054674	505.2383440664715	1197.560075383839	-366.5239439053072	42.74855889464855	1249.2592967004045	-345.81069236583545	-7.862750572832852	1124.7847139508206	-423.73879821726786	308.9881333876836	936.8203188110311	-245.28180648003612	260.00520757760995	1018.0958240457422	-329.0449244720839	185.17793430665512	1148.0053337169509	-344.7980532339463	185.29186937331167	961.6109429393226	-261.3267674510084	333.92431264586463	1192.4951665967458	-361.4520983379153	366.31078980415026	626.5103591194521	-210.46733994267208	464.026447571164	605.5283821560574	-227.77283115475132	155.7865377442912	558.2375188682821	-243.046165072809	42.113762647693925	735.9573166495213	-164.07705621961458	2.007685624710445	197.88442653777523	-200.9341968129383	124.84586824152754	320.48349316161153	-261.1430164354291	491.5334087663236	327.605212762209	-241.44538093324465	404.0270181610276	267.74169337822275	-248.36031887986223	516.9509329125897	31.81892480000603	-370.76438977009263	540.3556268671252	34.46818182559154	-352.8554328611892	477.7606207977062	48.57316636466383	-307.67706191058085	513.9174783091734	56.613751784554616	-292.58188852063915	544.995023047333	44.18479989441479	-279.0624803762954	14.056781609437213	29.675164930944202	-336.7509027114506	-4.234454352303491	58.43153992875456	-229.8368929484148	-0.8472753340464378	28.811371556152174	-328.55958657201876	32.377798356263405	30.700052518080945	-346.16064798073273	25.530098239802637	45.80949889303377	-286.8203551546753	56.24858145621123	59.29896616168451	-257.0928315596568	
154	5.133333333333333	260.8656029467478	1588.158678669148	-337.1251937993064	230.22307283034243	1419.621953409222	-463.0235303695381	239.96489705623293	1274.5171855207182	-292.42452918002226	391.9646132484702	1252.6577438900401	-331.5105937234233	544.8598425694771	1099.1343773678996	-479.93820943966114	367.25352000802894	1192.7756454895916	-583.7657148822974	81.05319041260775	1226.591041712663	-309.3506903419	-38.54374905719898	1101.554178949153	-514.7236235088443	159.9179480790252	1194.827463579141	-610.9078784446526	365.2667980794851	796.9295076676747	-105.9950585729684	398.4406411483249	467.4888625585084	-309.90438999689917	479.3926413776835	102.81490610894106	-191.08828374946603	159.60639935295504	784.7087893620071	-95.39134976221882	84.01709977520463	464.3329510548119	-312.86025392036464	63.52043375846846	105.80376549200493	-173.582505452411	485.2728591242728	47.10029816096259	-164.68056965098603	56.851622077784114	44.557010782675796	-136.1120354279783	492.7151821721864	35.752419454030615	-390.65452321256424	556.437073207405	34.45026452050856	-327.5628339430785	63.223843610825504	45.023794329159095	-365.12427301168026	-15.3458831769092	26.782859449698	-307.5554058022857	108.35733379824019	811.1591030800728	-167.1745736986793	409.7648487472232	828.4533016203154	-178.0111074495301	308.1280069241365	921.2366818366825	-66.01083930490087	205.52166172298706	911.3425214377571	-65.55782137213009	318.4717680830058	1200.9709430197468	-637.9401142973398	301.1390027266739	1242.9503538836511	-609.5438722331461	212.58353019117328	1207.2504371609368	-664.6351805258552	234.72544726319256	1238.706967940266	-627.541117612602	37.00563219584388	472.0033072036393	-304.6239393354583	381.47567024358517	1177.3598420308151	-602.9705931192649	11.953911777994833	99.23050550369794	-156.90435921790967	449.9996943005783	81.62213955732378	-204.60394941237232	441.1636687593118	465.5628612204487	-311.3292643798672	252.1418601636934	1084.1031645526257	-326.6872520610971	89.97943390257713	87.13094817558643	-186.36203963935256	357.6010947408126	460.15019495390345	-308.4909187374889	-28.022401315810868	1074.0479613876275	-492.4462041948643	260.46063625565984	872.8755007009456	-269.1920942299947	560.758967334692	1134.88996119027	-488.94980454548653	361.63970538673414	1198.4284173912617	-553.4337931544788	139.32910720395333	1186.741967859544	-635.8187038949405	-51.65692032478175	1140.2414265019254	-515.9790361865196	130.14576998019493	470.3131570824233	-325.8224001481566	523.6834367626276	1073.175165641557	-464.1951089548096	529.5784604717849	96.58896100965435	-183.68442331183422	159.5397251504074	1206.5853952818334	-581.0779062800927	235.47043288844242	1343.1799374839604	-447.69013926609466	246.8583936288907	1158.3580179864655	-145.9932937040422	262.2456767664789	1451.5406631221344	-469.0000167474415	195.2382515027157	1450.2503363498768	-452.53477735261436	168.77037933668387	1439.8906032623206	-341.49977001311254	335.5975084541218	1439.871748185826	-379.98775654452186	235.72539144891363	1346.158251748659	-265.6626030348805	239.44041938836423	1252.4881427109592	-178.73890145677152	267.20050796656204	1011.0893316937705	-111.41870870266877	247.53262041127363	1145.0412403194732	-155.12350807519348	446.3066414642936	1192.631622193129	-442.9770706636488	511.6611950473715	1161.6991773941118	-391.5734025863964	41.21554112478121	1226.1442879207123	-356.698860360267	-8.49951203525412	1100.8986165273523	-433.96561494986787	308.3391658231675	914.6305679273563	-240.66828150108566	258.2834907721529	992.3137212162447	-327.1613552012657	182.8411917242498	1121.240678573304	-347.4113372996682	184.40960996973328	938.3532410434295	-256.5264502018506	331.26341272505636	1165.5094259564107	-367.24337792454565	365.68462351098015	616.7228218594765	-214.17815769549603	463.1250308375281	597.024311240864	-234.31292503134432	153.3833758394275	550.729585081956	-249.29587353483308	42.20543048279382	724.5040554428683	-158.83127055833376	1.0081888091625912	196.77721328564252	-206.1210007189373	122.41264007583126	318.685359120751	-270.4965814748185	489.7183776056666	326.2358587093521	-251.2448702623123	402.5918496588071	265.708594177118	-257.096715507971	515.4965418497778	29.545752046192877	-371.3783138424476	538.9397656059124	32.43002624237087	-353.5562707009016	476.4555428127289	47.346460449495474	-308.48529924581567	512.6551311476293	55.55478575744129	-293.5840637703867	543.7361016010778	43.28080813741873	-279.93159960936003	14.62454622172467	29.373597012114775	-338.3218421344446	-3.821417480725099	58.42130452610254	-231.51322351729837	-0.2741239034003279	28.457205248404023	-330.1264429920499	32.9391752765162	30.46557049351963	-347.73647498643754	26.010272993077052	45.75508484536993	-288.4517570284687	56.65467121199524	59.524275458094415	-258.776062511373	
155	5.166666666666667	257.71390911737694	1561.7639287344023	-351.81243157242045	226.04247255348824	1390.1123534113672	-473.1658013629864	239.0503096358388	1247.8946494509676	-301.94404474674974	399.53570572128297	1213.8888287400832	-355.7776928917718	547.7845885707806	1058.1360007127323	-506.57708818227144	366.11459488831497	1164.0106406321072	-589.5193440777803	79.22887219927016	1201.2484864072617	-318.47455801123857	-38.73270012142393	1075.7885285954417	-524.5341442948317	161.71107153717017	1172.0611155883	-613.3724533196753	365.64787599306544	778.1356716942443	-98.99474071756129	396.08097226491896	462.5464215538475	-324.9715179176084	478.45224855891115	102.57738692489943	-193.46161369926338	160.11793968574915	765.3645305468845	-86.6526405676807	80.21194502014833	459.9972263507127	-325.58452971846907	63.57831436427762	105.44333314023591	-175.99696146183982	484.74702964130836	47.34448223684609	-165.47882131309242	57.43930454273882	44.46296655545497	-137.35111125899817	491.1474154688593	33.87473991110131	-391.36815553382	555.1977924952924	33.76888615161317	-328.5965516256365	62.28133691787796	45.02184703293393	-366.4006046710757	-15.907062170162453	26.77900281458572	-308.31548585891073	108.27516959064637	789.588360913568	-158.79451665889445	409.52566000749096	807.8207885650271	-172.1635270990494	308.2407601751965	903.2729753492683	-62.10394128898308	205.68353361821661	892.9706828142887	-60.67573953554309	313.07661044881945	1176.7886855218642	-638.5640333912421	300.3688593974857	1218.1128369964977	-606.9433151377725	215.92279827843143	1185.5870109102348	-665.2642218405214	236.554439816686	1216.857557419698	-627.1560125918055	33.62681839938636	468.61731922517407	-315.85785871822793	377.804582690731	1148.9049973298497	-610.5884595623808	12.233714666968028	99.01516203663196	-158.5933642462702	449.1583295485311	80.80372655462014	-206.24933958752612	438.7917389923438	460.8408311329853	-326.37170720662556	250.24234708312687	1056.2280711483934	-328.74652691808274	90.02766774674403	86.58552822060844	-188.52230331171268	355.28025016079846	455.1398160111963	-322.7129371379316	-28.245342887313882	1048.3198978052515	-502.19440761589	258.5201534407871	847.4197163042023	-263.0002718528889	564.2026089946755	1093.6313435639088	-515.6865354963397	363.53537924875155	1168.4885734641268	-558.5873220825462	142.00599097208	1164.0424310072806	-639.0090547274045	-51.97328880094771	1114.429728717171	-525.8679019436768	126.79544846139446	466.9332100548992	-336.9312249281843	526.3500676925817	1032.5082433282735	-490.6414232952654	528.6575864285647	96.82306348965358	-185.81257512558327	160.26718515489404	1183.4907268631116	-583.4475735693889	233.30170979309028	1314.1159759499826	-456.49596163747077	247.18496071490884	1137.6138177406929	-151.09794824643708	257.212908650648	1422.4957293824207	-480.8917612543759	190.8498188297998	1420.2894717102358	-462.08121026561076	168.42657777655052	1411.735259662617	-350.00682024523957	333.798662917744	1414.049891655635	-394.2711671523487	235.33403679775202	1320.5561989647574	-278.0044330640875	239.7070701278096	1230.3965531856165	-187.47413146158763	267.4368893704331	991.7604972176416	-110.92410371729217	247.71619099353032	1123.9428481224943	-159.6987823768416	451.3868422203636	1153.2539459558166	-468.09793786808723	516.8249331268295	1121.0054083665473	-417.6176546977782	39.669478580362	1200.6612046138548	-366.0539292809191	-9.157240091138164	1075.2403562427721	-443.60248449596105	306.84262209590435	890.100144085759	-236.679800111653	256.0857644445896	964.4704758099335	-325.6409706773715	180.83648449532896	1092.7646825300574	-350.1747225946741	182.82226071536405	913.6235465794521	-252.11939358115131	329.1717650811916	1135.673632501705	-373.36209120071527	364.6218867810152	605.2996443227333	-218.59767593401625	461.77722137389526	587.0793736661583	-241.33389931369385	150.9667538155318	541.9033529438985	-255.33267612703924	42.04717643906421	711.0971768119495	-154.08090032200704	0.12025863434073081	195.05261859495272	-210.43464096474474	120.0250846778937	315.86103188087003	-279.52163088887073	487.89786420003503	323.8067191514128	-261.36390157068706	401.028142602769	262.7487415108545	-265.1587075825462	514.0825159914203	28.06447359962448	-372.1507861466844	537.588240980264	31.336309251030737	-354.4786333724159	475.19853914604016	46.11536815787894	-309.2318091933269	511.39601475088847	54.79945406130861	-294.597499147077	542.6576886820808	42.94400759629375	-280.9878275585318	13.85784888408291	29.374078487943674	-339.28043081637855	-3.86595064508119	58.383099642074946	-232.3391033439629	-0.9859847891097728	28.458439503553688	-330.98603996485065	32.10946755664949	30.464856192254107	-348.816781012734	25.58110020025809	45.731984256484395	-289.48085648420584	56.42693270504564	59.48055480368551	-260.00496765288506	
